<?xml version="1.0" standalone="no"?>
<!DOCTYPE svg PUBLIC "-//W3C//DTD SVG 20010904//EN"
 "http://www.w3.org/TR/2001/REC-SVG-20010904/DTD/svg10.dtd">
<svg version="1.0" xmlns="http://www.w3.org/2000/svg"
 width="700.000000pt" height="700.000000pt" viewBox="0 0 700.000000 700.000000"
 preserveAspectRatio="xMidYMid meet">
<metadata>
Created by potrace 1.14, written by Peter Selinger 2001-2017
</metadata>
<g transform="translate(0.000000,700.000000) scale(0.100000,-0.100000)"
fill="#000000" stroke="none">
<path d="M1095 6980 c-157 -33 -271 -81 -400 -166 -188 -124 -351 -340 -420
-556 -24 -76 -28 -92 -43 -173 -4 -22 -7 -926 -7 -2010 0 -1900 1 -1973 19
-2050 86 -361 327 -642 663 -774 176 -69 232 -74 724 -75 l397 -1 122 -104
c67 -57 127 -109 133 -115 7 -6 41 -36 77 -66 36 -30 67 -57 70 -60 3 -3 52
-46 110 -95 58 -49 116 -100 130 -111 14 -12 108 -93 210 -180 102 -87 187
-160 190 -163 3 -4 34 -31 70 -61 75 -64 102 -87 150 -130 67 -60 127 -84 210
-84 83 0 139 20 195 72 17 15 57 50 90 77 33 28 65 55 70 61 10 11 117 102
169 145 17 13 50 42 75 65 26 22 109 94 186 160 178 152 195 167 209 179 6 6
56 48 111 95 94 79 143 122 169 145 6 6 40 35 76 65 35 30 77 66 93 80 l29 25
406 1 c224 0 432 4 462 8 345 45 653 261 818 573 51 97 97 235 110 333 9 72 9
3930 0 3995 -57 385 -338 725 -708 853 -47 16 -101 32 -120 36 -19 3 -46 9
-60 13 -14 4 -1076 9 -2360 10 -2257 2 -2338 1 -2425 -17z m4709 -550 c211
-44 375 -213 411 -424 8 -47 8 -3788 0 -3831 -41 -217 -182 -370 -391 -424
-56 -15 -272 -17 -2340 -16 l-2279 1 -71 26 c-91 33 -146 68 -211 135 -57 58
-115 166 -133 247 -16 70 -15 3813 1 3887 38 178 187 338 364 391 16 5 57 11
90 14 33 4 61 7 62 8 1 0 1000 0 2220 0 1713 -1 2231 -4 2277 -14z m-1694
-5257 c0 -1 -109 -96 -242 -210 -134 -114 -245 -210 -248 -213 -3 -3 -31 -27
-63 -54 l-58 -49 -22 20 c-19 17 -251 216 -452 387 -33 28 -77 67 -98 86 l-39
35 611 0 c336 0 611 -1 611 -2z"/>
<path d="M1587 5549 c-125 -29 -211 -138 -211 -270 1 -151 112 -268 262 -275
82 -3 140 17 201 72 145 130 109 372 -67 454 -50 24 -128 32 -185 19z"/>
<path d="M2501 5548 c-107 -30 -199 -143 -202 -251 -4 -92 28 -165 96 -225
155 -137 397 -63 450 137 44 170 -79 338 -253 346 -31 1 -72 -2 -91 -7z"/>
<path d="M3439 5553 c-82 -12 -185 -113 -210 -206 -33 -122 38 -268 159 -325
34 -16 108 -17 1018 -20 l982 -2 58 21 c231 86 239 406 14 513 -45 21 -47 21
-1020 22 -536 0 -987 -1 -1001 -3z"/>
<path d="M1566 4353 c-114 -39 -188 -143 -190 -263 -1 -111 61 -207 168 -260
18 -10 59 -15 110 -15 91 0 135 18 194 76 58 57 76 104 77 194 0 89 -20 142
-77 202 -63 65 -195 97 -282 66z"/>
<path d="M3412 4351 c-76 -26 -132 -77 -166 -151 -28 -61 -27 -167 3 -231 56
-123 199 -184 336 -144 75 21 153 96 177 170 72 221 -133 429 -350 356z"/>
<path d="M5279 4356 c-122 -31 -197 -122 -206 -250 -5 -61 -2 -79 20 -127 27
-61 71 -109 132 -142 59 -32 183 -31 245 2 100 52 154 141 153 253 -1 182
-166 309 -344 264z"/>
<path d="M1590 3167 c-150 -30 -248 -196 -204 -345 27 -92 103 -170 188 -193
47 -13 1914 -17 1981 -5 135 26 228 148 221 291 -4 73 -30 128 -87 183 -81 80
-23 76 -1100 77 -526 0 -976 -4 -999 -8z"/>
<path d="M4362 3164 c-200 -52 -277 -294 -141 -448 133 -152 372 -120 460 61
102 210 -92 445 -319 387z"/>
<path d="M5291 3169 c-80 -15 -150 -70 -199 -158 -8 -13 -16 -56 -19 -95 -5
-61 -2 -79 19 -126 33 -74 104 -142 163 -156 6 -2 21 -6 35 -9 164 -40 333 96
334 269 0 63 -31 146 -71 191 -61 69 -165 102 -262 84z"/>
</g>
</svg>
